<svg width="70.000000" height="70.000000" viewBox="0 0 70 70" fill="none" xmlns="http://www.w3.org/2000/svg" xmlns:xlink="http://www.w3.org/1999/xlink">
	<desc>
			Created with Pixso.
	</desc>
	<defs/>
	<rect x="-0.853882" rx="15.000000" width="70.182762" height="70.000000" fill="#FFCD1D" fill-opacity="0.240000"/>
	<g opacity="0.000000">
		<path d="M22.2 23L47.27 23L47.27 48L22.2 48L22.2 23Z" fill="#FFC700" fill-opacity="1.000000" fill-rule="evenodd"/>
	</g>
	<path d="M35.64 45.91C35.14 45.91 34.65 45.71 34.3 45.36L27.6 38.67C27.43 38.5 27.32 38.28 27.3 38.04L26.38 28.3C26.36 28.14 26.38 27.99 26.44 27.85C26.49 27.7 26.57 27.57 26.68 27.46C26.79 27.36 26.92 27.27 27.07 27.22C27.21 27.17 27.36 27.15 27.52 27.16L37.28 28.08C37.52 28.1 37.75 28.21 37.92 28.38L44.62 35.06C44.98 35.41 45.18 35.89 45.18 36.4C45.18 36.9 44.98 37.38 44.62 37.73L36.98 45.36C36.62 45.71 36.14 45.91 35.64 45.91ZM29.38 37.46L35.64 43.71L43.01 36.37L36.74 30.12L28.58 29.36L29.38 37.46Z" fill="#FFC700" fill-opacity="1.000000" fill-rule="nonzero"/>
	<path d="M34.73 33.93C34.73 34.8 34.03 35.5 33.17 35.5C32.3 35.5 31.6 34.8 31.6 33.93C31.6 33.07 32.3 32.37 33.17 32.37C34.03 32.37 34.73 33.07 34.73 33.93Z" fill="#FFC700" fill-opacity="1.000000" fill-rule="evenodd"/>
</svg>
