<svg width="70.000000" height="70.000000" viewBox="0 0 70 70" fill="none" xmlns="http://www.w3.org/2000/svg" xmlns:xlink="http://www.w3.org/1999/xlink">
	<desc>
			Created with Pixso.
	</desc>
	<defs/>
	<rect x="-0.898254" rx="15.000000" width="70.182762" height="70.000000" fill="#149211" fill-opacity="0.280000"/>
	<g opacity="0.000000">
		<path d="M22.16 23L47.22 23L47.22 48L22.16 48L22.16 23Z" fill="#149211" fill-opacity="1.000000" fill-rule="evenodd"/>
	</g>
	<path d="M33.76 46.95C33.64 46.95 33.52 46.93 33.4 46.89C33.19 46.81 33 46.66 32.88 46.46C32.75 46.26 32.7 46.03 32.73 45.8L33.53 38.41L27.38 38.41C27.19 38.41 27 38.36 26.84 38.26C26.68 38.17 26.54 38.03 26.46 37.86C26.37 37.69 26.32 37.5 26.33 37.32C26.34 37.13 26.41 36.94 26.51 36.79L34.75 24.5C34.88 24.3 35.07 24.16 35.29 24.09C35.52 24.02 35.76 24.02 35.97 24.1C36.18 24.18 36.36 24.32 36.49 24.51C36.61 24.7 36.67 24.92 36.65 25.14L35.85 32.58L42 32.58C42.19 32.58 42.38 32.63 42.54 32.73C42.7 32.82 42.83 32.96 42.92 33.13C43.01 33.3 43.05 33.49 43.04 33.67C43.03 33.86 42.97 34.05 42.87 34.2L34.63 46.5C34.53 46.64 34.4 46.75 34.25 46.83C34.1 46.91 33.93 46.95 33.76 46.95ZM29.33 36.33L34.69 36.33C34.84 36.33 34.98 36.36 35.11 36.42C35.25 36.48 35.36 36.56 35.46 36.67C35.56 36.78 35.64 36.91 35.68 37.05C35.73 37.19 35.74 37.34 35.72 37.48L35.25 41.81L40.05 34.66L34.69 34.66C34.54 34.66 34.4 34.63 34.26 34.57C34.13 34.51 34.01 34.43 33.91 34.32C33.81 34.21 33.73 34.08 33.69 33.94C33.64 33.8 33.63 33.65 33.65 33.51L34.12 29.18L29.33 36.33Z" fill="#149211" fill-opacity="1.000000" fill-rule="nonzero"/>
</svg>
