<svg width="70.000000" height="70.000000" viewBox="0 0 70 70" fill="none" xmlns="http://www.w3.org/2000/svg" xmlns:xlink="http://www.w3.org/1999/xlink">
	<desc>
			Created with Pixso.
	</desc>
	<defs/>
	<rect x="-0.942505" rx="15.000000" width="70.182762" height="70.000000" fill="#F25822" fill-opacity="0.250000"/>
	<path d="M22.89 25.77L22.89 45.22L45.17 45.22L45.17 25.77L22.89 25.77ZM21.5 23L46.57 23C46.93 23 47.29 23.14 47.55 23.4C47.81 23.66 47.96 24.02 47.96 24.38L47.96 46.61C47.96 46.97 47.81 47.33 47.55 47.59C47.29 47.85 46.93 48 46.57 48L21.5 48C21.13 48 20.78 47.85 20.52 47.59C20.25 47.33 20.11 46.97 20.11 46.61L20.11 24.38C20.11 24.02 20.25 23.66 20.52 23.4C20.78 23.14 21.13 23 21.5 23ZM37.92 32.43L35.43 29.94L42.39 29.94L42.39 36.88L39.89 34.39L34.51 39.76L31.56 36.81L27.62 40.74L25.65 38.78L31.56 32.89L34.51 35.83L37.92 32.43Z" fill="#F25822" fill-opacity="1.000000" fill-rule="nonzero"/>
</svg>
